<mxfile host="app.diagrams.net" modified="2024-03-22T02:21:35.679Z" agent="Mozilla/5.0 (Windows NT 10.0; Win64; x64) AppleWebKit/537.36 (KHTML, like Gecko) Chrome/121.0.0.0 Safari/537.36" etag="I-oMaepjooR_Z0ytkSkC" version="24.0.7" type="device">
  <diagram name="Page-1" id="V4Uc9qd8PmuARo3zMQDT">
    <mxGraphModel dx="1134" dy="1331" grid="0" gridSize="10" guides="1" tooltips="1" connect="1" arrows="1" fold="1" page="0" pageScale="1" pageWidth="850" pageHeight="1100" math="0" shadow="0">
      <root>
        <mxCell id="0" />
        <mxCell id="1" parent="0" />
        <mxCell id="6bqzFP4VC01sqSyXpHi2-1" value="Khách hàng" style="rounded=0;whiteSpace=wrap;html=1;" vertex="1" parent="1">
          <mxGeometry x="-228" y="12" width="120" height="60" as="geometry" />
        </mxCell>
        <mxCell id="6bqzFP4VC01sqSyXpHi2-2" value="Quản lý website đồ ăn nhanh" style="ellipse;whiteSpace=wrap;html=1;" vertex="1" parent="1">
          <mxGeometry x="145" width="120" height="80" as="geometry" />
        </mxCell>
        <mxCell id="6bqzFP4VC01sqSyXpHi2-4" value="Mặt hàng" style="text;html=1;align=center;verticalAlign=middle;whiteSpace=wrap;rounded=0;fontSize=16;" vertex="1" parent="1">
          <mxGeometry x="-95" y="-104" width="214" height="30" as="geometry" />
        </mxCell>
        <mxCell id="6bqzFP4VC01sqSyXpHi2-7" value="" style="edgeStyle=elbowEdgeStyle;elbow=horizontal;endArrow=classic;html=1;curved=0;rounded=0;endSize=8;startSize=8;fontSize=12;entryX=0.75;entryY=1;entryDx=0;entryDy=0;" edge="1" parent="1" source="6bqzFP4VC01sqSyXpHi2-2" target="6bqzFP4VC01sqSyXpHi2-1">
          <mxGeometry width="50" height="50" relative="1" as="geometry">
            <mxPoint x="52" y="174" as="sourcePoint" />
            <mxPoint x="102" y="124" as="targetPoint" />
            <Array as="points">
              <mxPoint x="-20" y="109" />
            </Array>
          </mxGeometry>
        </mxCell>
        <mxCell id="6bqzFP4VC01sqSyXpHi2-8" value="" style="edgeStyle=elbowEdgeStyle;elbow=vertical;endArrow=classic;html=1;curved=0;rounded=0;endSize=8;startSize=8;fontSize=12;exitX=0.253;exitY=0.076;exitDx=0;exitDy=0;entryX=0.5;entryY=0;entryDx=0;entryDy=0;exitPerimeter=0;" edge="1" parent="1" source="6bqzFP4VC01sqSyXpHi2-2" target="6bqzFP4VC01sqSyXpHi2-1">
          <mxGeometry width="50" height="50" relative="1" as="geometry">
            <mxPoint x="52" y="174" as="sourcePoint" />
            <mxPoint x="102" y="124" as="targetPoint" />
            <Array as="points">
              <mxPoint x="8" y="-67" />
            </Array>
          </mxGeometry>
        </mxCell>
        <mxCell id="6bqzFP4VC01sqSyXpHi2-9" value="Phương thức thanh toán" style="text;html=1;align=center;verticalAlign=middle;whiteSpace=wrap;rounded=0;fontSize=16;" vertex="1" parent="1">
          <mxGeometry x="-87" y="86" width="192" height="30" as="geometry" />
        </mxCell>
        <mxCell id="6bqzFP4VC01sqSyXpHi2-11" value="Thông tin khách hàng" style="text;html=1;align=center;verticalAlign=middle;resizable=0;points=[];autosize=1;strokeColor=none;fillColor=none;fontSize=16;" vertex="1" parent="1">
          <mxGeometry x="-70" y="-68" width="172" height="31" as="geometry" />
        </mxCell>
        <mxCell id="6bqzFP4VC01sqSyXpHi2-12" value="" style="edgeStyle=elbowEdgeStyle;elbow=vertical;endArrow=classic;html=1;curved=0;rounded=0;endSize=8;startSize=8;fontSize=12;exitX=1;exitY=0.5;exitDx=0;exitDy=0;entryX=0;entryY=0.5;entryDx=0;entryDy=0;" edge="1" parent="1" source="6bqzFP4VC01sqSyXpHi2-1" target="6bqzFP4VC01sqSyXpHi2-2">
          <mxGeometry width="50" height="50" relative="1" as="geometry">
            <mxPoint x="52" y="174" as="sourcePoint" />
            <mxPoint x="102" y="124" as="targetPoint" />
            <Array as="points">
              <mxPoint x="22" y="79" />
            </Array>
          </mxGeometry>
        </mxCell>
        <mxCell id="6bqzFP4VC01sqSyXpHi2-17" value="" style="edgeStyle=elbowEdgeStyle;elbow=vertical;endArrow=classic;html=1;curved=0;rounded=0;endSize=8;startSize=8;fontSize=12;exitX=0.665;exitY=-0.065;exitDx=0;exitDy=0;exitPerimeter=0;entryX=0;entryY=0;entryDx=0;entryDy=0;" edge="1" parent="1" source="6bqzFP4VC01sqSyXpHi2-1" target="6bqzFP4VC01sqSyXpHi2-2">
          <mxGeometry width="50" height="50" relative="1" as="geometry">
            <mxPoint x="-148" y="8" as="sourcePoint" />
            <mxPoint x="124" y="8" as="targetPoint" />
            <Array as="points">
              <mxPoint x="12" y="-41" />
            </Array>
          </mxGeometry>
        </mxCell>
        <mxCell id="6bqzFP4VC01sqSyXpHi2-15" value="Tìm kiếm về mặt hàng" style="text;html=1;align=center;verticalAlign=middle;resizable=0;points=[];autosize=1;strokeColor=none;fillColor=none;fontSize=16;" vertex="1" parent="1">
          <mxGeometry x="-101" y="-37" width="176" height="31" as="geometry" />
        </mxCell>
        <mxCell id="6bqzFP4VC01sqSyXpHi2-18" value="" style="edgeStyle=elbowEdgeStyle;elbow=vertical;endArrow=classic;html=1;curved=0;rounded=0;endSize=8;startSize=8;fontSize=12;exitX=0.75;exitY=0;exitDx=0;exitDy=0;entryX=0.069;entryY=0.153;entryDx=0;entryDy=0;entryPerimeter=0;" edge="1" parent="1" source="6bqzFP4VC01sqSyXpHi2-1" target="6bqzFP4VC01sqSyXpHi2-2">
          <mxGeometry width="50" height="50" relative="1" as="geometry">
            <mxPoint x="52" y="174" as="sourcePoint" />
            <mxPoint x="102" y="124" as="targetPoint" />
            <Array as="points">
              <mxPoint x="-10" y="-5" />
            </Array>
          </mxGeometry>
        </mxCell>
        <mxCell id="6bqzFP4VC01sqSyXpHi2-19" value="" style="edgeStyle=elbowEdgeStyle;elbow=vertical;endArrow=classic;html=1;curved=0;rounded=0;endSize=8;startSize=8;fontSize=12;entryX=1;entryY=0.5;entryDx=0;entryDy=0;" edge="1" parent="1" target="6bqzFP4VC01sqSyXpHi2-1">
          <mxGeometry width="50" height="50" relative="1" as="geometry">
            <mxPoint x="144" y="21" as="sourcePoint" />
            <mxPoint x="-71" y="49" as="targetPoint" />
          </mxGeometry>
        </mxCell>
        <mxCell id="6bqzFP4VC01sqSyXpHi2-20" value="Kết quả tìm kiếm về mặt hàng" style="text;html=1;align=center;verticalAlign=middle;resizable=0;points=[];autosize=1;strokeColor=none;fillColor=none;fontSize=16;" vertex="1" parent="1">
          <mxGeometry x="-115" y="-6" width="231" height="31" as="geometry" />
        </mxCell>
        <mxCell id="6bqzFP4VC01sqSyXpHi2-21" value="Danh mục mặt hàng cần mua" style="text;html=1;align=center;verticalAlign=middle;resizable=0;points=[];autosize=1;strokeColor=none;fillColor=none;fontSize=16;" vertex="1" parent="1">
          <mxGeometry x="-95" y="45" width="228" height="31" as="geometry" />
        </mxCell>
      </root>
    </mxGraphModel>
  </diagram>
</mxfile>
